# xmcd CD database file
#
# Track frame offsets:
#	190
#	14127
#	27165
#	39830
#	52645
#	81525
#	94847
#	112925
#	128525
#	142215
#	158342
#	179085
#	191632
#	208887
#	227150
#	249892
#	270200
#
# Disc length: 3839 seconds
#
# Revision: 0
# Processed by: cddbd v1.5.2PL0 Copyright (c) Steve Scherf et al.
# Submitted via: CDex 1.70beta2
#
DISCID=dd0efd11
DTITLE=Patsy Peters - Down Country Roads
DYEAR=1900
DGENRE=Country
TTITLE0=Country Roads
TTITLE1=Crazy Arms
TTITLE2=Follow Me
TTITLE3=Stand By Your Man
TTITLE4=Ode To Billy Joe
TTITLE5=Snowbird
TTITLE6=Me and Bobby M'Gee
TTITLE7=You've Got A Friend
TTITLE8=My Man
TTITLE9=Good Time Charlies Got The Blues
TTITLE10=Moon Behind The Hill
TTITLE11=Who Would Want
TTITLE12=Love Has No Pride
TTITLE13=Crazy
TTITLE14=Fields of Athenry
TTITLE15=American Trilogy
TTITLE16=Sweet Dreams
EXTD=
EXTT0=
EXTT1=
EXTT2=
EXTT3=
EXTT4=
EXTT5=
EXTT6=
EXTT7=
EXTT8=
EXTT9=
EXTT10=
EXTT11=
EXTT12=
EXTT13=
EXTT14=
EXTT15=
EXTT16=
PLAYORDER=
